<svg aria-hidden="true" style="position:absolute;width:0;height:0" xmlns="http://www.w3.org/2000/svg" overflow="hidden">
    <def>
    <!-- Advantages Icons -->
    <symbol id="icon-strategy-adv-icon" viewBox="0 0 32 32">
        <title>strategy-adv-icon</title>
            <path fill="#2e2f42" style="fill: var(--color2, #2e2f42)" d="M30.773 22.098l-8.443-8.505 0.937-4.615c0.242 0.094 0.499 0.144 0.758 0.146h0.006c1.192 0.014 2.17-0.941 2.184-2.133s-0.941-2.17-2.133-2.184c-1.192-0.014-2.17 0.941-2.184 2.133-0.003 0.255 0.039 0.509 0.125 0.749l-4.96 0.605-8.091-8.133c-0.099-0.101-0.235-0.159-0.377-0.16-0.14 0.001-0.274 0.056-0.373 0.155l-1.513 1.504c-0.208 0.208-0.208 0.546 0 0.754l0.814 0.826c-3.153 5.798-2.129 12.978 2.519 17.663 0.043 0.041 0.092 0.074 0.146 0.098-0.034 0.18-0.051 0.364-0.052 0.547v6.187h-6.4c-1.472 0.002-2.665 1.195-2.667 2.667v1.067c0 0.295 0.239 0.533 0.533 0.533h24.533c0.295 0 0.533-0.239 0.533-0.533v-1.067c-0.002-1.472-1.195-2.665-2.667-2.667h-6.4v-2.742c1.003 0.21 2.024 0.317 3.049 0.32 2.458-0.003 4.877-0.615 7.040-1.783l0.818 0.823c0.099 0.101 0.235 0.159 0.377 0.16 0.14-0.001 0.274-0.056 0.373-0.155l1.513-1.504c0.208-0.208 0.208-0.546 0-0.754zM23.28 6.233c0.418-0.415 1.093-0.414 1.509 0.004s0.414 1.093-0.004 1.508c-0.2 0.199-0.47 0.31-0.752 0.31h-0.003c-0.589-0.003-1.064-0.483-1.061-1.072 0.002-0.282 0.115-0.552 0.314-0.751h-0.002zM22.024 9.738l-0.598 2.946-1.175-1.182 1.774-1.763zM21.419 8.836l-1.92 1.909-1.485-1.493 3.405-0.415zM24.004 28.8c0.884 0 1.6 0.716 1.6 1.6v0.533h-23.467v-0.533c0-0.884 0.716-1.6 1.6-1.6h20.267zM16.537 26.667v1.067h-5.333v-1.067h5.333zM11.204 25.6v-4.053c0-1.294 1.196-2.347 2.667-2.347s2.667 1.053 2.667 2.347v4.053h-5.333zM17.604 23.904v-2.357c0-1.882-1.675-3.413-3.733-3.413-1.331-0.020-2.576 0.657-3.281 1.786-4.058-4.274-4.971-10.645-2.279-15.887l18.602 18.708c-2.872 1.461-6.165 1.873-9.309 1.163zM28.893 23.22l-21.057-21.181 0.755-0.752 7.935 7.98c0.004 0 0.006 0.007 0.010 0.010l13.115 13.191-0.757 0.752z"></path>
            <path fill="#4d5ae5" style="fill: var(--color1, #4d5ae5)" d="M13.876 20.267h-0.005c-0.884-0.001-1.601 0.714-1.602 1.598s0.714 1.601 1.598 1.602h0.005c0.884 0.001 1.601-0.714 1.602-1.598s-0.714-1.601-1.598-1.602zM14.249 22.245c-0.1 0.1-0.236 0.156-0.378 0.155-0.295-0.002-0.532-0.242-0.531-0.536 0.001-0.141 0.057-0.276 0.157-0.375s0.233-0.154 0.373-0.155c0.295 0.002 0.532 0.242 0.531 0.536-0.001 0.141-0.057 0.276-0.157 0.375h0.005z"></path>
    </symbol>

    <symbol id="icon-punctuality-adv-icon" viewBox="0 0 32 32">
        <title>punctuality-adv-icon</title>
            <path fill="#2e2f42" style="fill: var(--color2, #2e2f42)" d="M31.297 15.301c-0.002-8.452-6.855-15.303-15.308-15.301s-15.303 6.855-15.301 15.308c0.001 6.658 4.307 12.551 10.649 14.576 0.061 0.019 0.124 0.029 0.187 0.029 0.121-0 0.239-0.032 0.342-0.094 0.135-0.080 0.236-0.207 0.283-0.356l3.865-12.25c1.057-0.005 1.909-0.866 1.903-1.923s-0.866-1.909-1.923-1.903c-0.284 0.001-0.565 0.067-0.82 0.191l-5.106-5.107c-0.253-0.245-0.657-0.238-0.902 0.016-0.239 0.247-0.239 0.639 0 0.886l5.103 5.109c-0.392 0.799-0.168 1.764 0.536 2.309l-3.683 11.673c-7.278-2.681-11.004-10.754-8.323-18.032s10.754-11.004 18.032-8.323c7.278 2.681 11.004 10.754 8.323 18.032-1.31 3.556-4.001 6.431-7.462 7.973l-0.398-1.874c-0.073-0.345-0.411-0.565-0.756-0.492-0.109 0.023-0.209 0.074-0.293 0.148l-3.837 3.426c-0.263 0.234-0.287 0.637-0.052 0.9 0.076 0.085 0.174 0.149 0.283 0.184l4.899 1.564c0.335 0.108 0.694-0.077 0.802-0.412 0.034-0.106 0.040-0.219 0.017-0.328l-0.391-1.839c5.664-2.388 9.342-7.942 9.329-14.089zM15.992 14.664c0.352 0 0.638 0.286 0.638 0.638s-0.286 0.638-0.638 0.638c-0.352 0-0.638-0.285-0.638-0.638s0.285-0.638 0.638-0.638zM18.093 29.528l2.184-1.948 0.603 2.84-2.787-0.892z"></path>
            <path fill="#4d5ae5" style="fill: var(--color1, #4d5ae5)" d="M15.354 3.185v1.275c0 0.352 0.285 0.638 0.638 0.638s0.638-0.285 0.638-0.638v-1.275c0-0.352-0.286-0.638-0.638-0.638s-0.638 0.286-0.638 0.638z"></path>
            <path fill="#4d5ae5" style="fill: var(--color1, #4d5ae5)" d="M3.876 14.664c-0.352 0-0.638 0.286-0.638 0.638s0.285 0.638 0.638 0.638h1.275c0.352 0 0.638-0.285 0.638-0.638s-0.285-0.638-0.638-0.638h-1.275z"></path>
            <path fill="#4d5ae5" style="fill: var(--color1, #4d5ae5)" d="M28.108 15.939c0.352 0 0.638-0.285 0.638-0.638s-0.285-0.638-0.638-0.638h-1.275c-0.352 0-0.638 0.286-0.638 0.638s0.286 0.638 0.638 0.638h1.275z"></path>
    </symbol>

    <symbol id="icon-diligence-adv-icon" viewBox="0 0 32 32">
        <title>diligence-adv-icon</title>
            <path fill="#4d5ae5" style="fill: var(--color1, #4d5ae5)" d="M14.926 14.965h1.066v4.798h-1.066v-4.797z"></path>
            <path fill="#4d5ae5" style="fill: var(--color1, #4d5ae5)" d="M19.19 17.097h1.066v2.665h-1.066v-2.665z"></path>
            <path fill="#4d5ae5" style="fill: var(--color1, #4d5ae5)" d="M10.661 18.696h1.066v1.066h-1.066v-1.066z"></path>
            <path fill="#4d5ae5" style="fill: var(--color1, #4d5ae5)" d="M7.463 18.163h1.066v1.599h-1.066v-1.599z"></path>
            <path fill="#2e2f42" style="fill: var(--color2, #2e2f42)" d="M1.599 28.291h25.587c0.883 0 1.599-0.716 1.599-1.599v-2.132c0-0.883-0.716-1.599-1.599-1.599h-0.533v-13.293l3.028-2.868c0.703 0.346 1.553 0.136 2.013-0.499s0.396-1.508-0.152-2.068-1.42-0.644-2.065-0.198c-0.644 0.446-0.873 1.292-0.542 2.002l-2.281 2.163v-1.23c0-0.883-0.716-1.599-1.599-1.599h-21.322c-0.883 0-1.599 0.716-1.599 1.599v15.992h-0.533c-0.883 0-1.599 0.716-1.599 1.599v2.132c0 0.883 0.716 1.599 1.599 1.599zM30.384 4.837c0.294 0 0.533 0.239 0.533 0.533s-0.239 0.533-0.533 0.533c-0.294 0-0.533-0.239-0.533-0.533s0.239-0.533 0.533-0.533zM3.198 6.969c0-0.294 0.239-0.533 0.533-0.533h21.322c0.294 0 0.533 0.239 0.533 0.533v2.239l-1.066 1.013v-2.186c0-0.294-0.239-0.533-0.533-0.533h-19.19c-0.294 0-0.533 0.239-0.533 0.533v13.326c0 0.294 0.239 0.533 0.533 0.533h19.19c0.294 0 0.533-0.239 0.533-0.533v-9.674l1.066-1.010v12.284h-22.388v-15.992zM7.996 13.899c-0.721-0.002-1.354 0.478-1.546 1.174s0.105 1.433 0.725 1.801c0.62 0.368 1.41 0.276 1.928-0.226l1.853 0.93c0.215 0.108 0.476 0.057 0.636-0.123l3.939-4.431 3.872 2.901c0.208 0.156 0.498 0.139 0.686-0.039l3.365-3.188v8.131h-18.124v-12.26h18.124v2.66l-3.771 3.572-3.904-2.927c-0.222-0.166-0.534-0.135-0.718 0.072l-3.993 4.493-1.493-0.746c0.011-0.064 0.018-0.129 0.020-0.193 0-0.883-0.716-1.599-1.599-1.599zM8.529 15.498c0 0.294-0.239 0.533-0.533 0.533s-0.533-0.239-0.533-0.533c0-0.294 0.239-0.533 0.533-0.533s0.533 0.239 0.533 0.533zM11.727 24.027h5.331v0.533c0 0.294-0.239 0.533-0.533 0.533h-4.264c-0.294 0-0.533-0.239-0.533-0.533v-0.533zM1.066 24.56c0-0.294 0.239-0.533 0.533-0.533h9.062v0.533c0 0.883 0.716 1.599 1.599 1.599h4.264c0.883 0 1.599-0.716 1.599-1.599v-0.533h9.062c0.294 0 0.533 0.239 0.533 0.533v2.132c0 0.294-0.239 0.533-0.533 0.533h-25.587c-0.294 0-0.533-0.239-0.533-0.533v-2.132z"></path>
    </symbol>

    <symbol id="icon-technologies-adv-icon" viewBox="0 0 32 32">
        <title>technologies-adv-icon</title>
            <path fill="#4d5ae5" style="fill: var(--color1, #4d5ae5)" d="M31.974 4.524c-0.063-0.193-0.229-0.333-0.43-0.363l-1.91-0.278-0.855-1.731c-0.179-0.365-0.777-0.365-0.956 0l-0.855 1.731-1.91 0.278c-0.201 0.029-0.367 0.17-0.431 0.363-0.062 0.193-0.011 0.405 0.135 0.547l1.383 1.348-0.326 1.903c-0.034 0.2 0.048 0.402 0.212 0.522 0.166 0.121 0.382 0.135 0.562 0.040l1.709-0.899 1.709 0.899c0.078 0.041 0.164 0.061 0.249 0.061 0.11 0 0.221-0.034 0.314-0.102 0.164-0.119 0.246-0.322 0.212-0.522l-0.326-1.903 1.383-1.348c0.145-0.142 0.197-0.354 0.135-0.547zM29.511 5.851c-0.125 0.122-0.183 0.299-0.153 0.472l0.191 1.114-1-0.526c-0.078-0.041-0.163-0.061-0.249-0.061s-0.17 0.020-0.249 0.061l-1.001 0.526 0.191-1.114c0.030-0.173-0.028-0.349-0.153-0.472l-0.81-0.789 1.119-0.163c0.174-0.025 0.324-0.134 0.402-0.292l0.5-1.013 0.5 1.013c0.078 0.157 0.228 0.267 0.402 0.292l1.119 0.163-0.809 0.789z"></path>
            <path fill="#4d5ae5" style="fill: var(--color1, #4d5ae5)" d="M26.134 20.522h-1.067v1.067h1.067v-1.067z"></path>
            <path fill="#4d5ae5" style="fill: var(--color1, #4d5ae5)" d="M26.134 22.656h-1.067v1.067h1.067v-1.067z"></path>
            <path fill="#4d5ae5" style="fill: var(--color1, #4d5ae5)" d="M27.2 21.589h-1.067v1.067h1.067v-1.067z"></path>
            <path fill="#4d5ae5" style="fill: var(--color1, #4d5ae5)" d="M25.067 21.589h-1.067v1.067h1.067v-1.067z"></path>
            <path fill="#4d5ae5" style="fill: var(--color1, #4d5ae5)" d="M22.4 26.389h-1.067v1.067h1.067v-1.067z"></path>
            <path fill="#4d5ae5" style="fill: var(--color1, #4d5ae5)" d="M22.4 28.522h-1.067v1.067h1.067v-1.067z"></path>
            <path fill="#4d5ae5" style="fill: var(--color1, #4d5ae5)" d="M23.467 27.456h-1.067v1.067h1.067v-1.067z"></path>
            <path fill="#4d5ae5" style="fill: var(--color1, #4d5ae5)" d="M21.333 27.456h-1.067v1.067h1.067v-1.067z"></path>
            <path fill="#4d5ae5" style="fill: var(--color1, #4d5ae5)" d="M16 24.256h-1.067v1.067h1.067v-1.067z"></path>
            <path fill="#4d5ae5" style="fill: var(--color1, #4d5ae5)" d="M16 26.389h-1.067v1.067h1.067v-1.067z"></path>
            <path fill="#4d5ae5" style="fill: var(--color1, #4d5ae5)" d="M17.067 25.322h-1.067v1.067h1.067v-1.067z"></path>
            <path fill="#4d5ae5" style="fill: var(--color1, #4d5ae5)" d="M14.933 25.322h-1.067v1.067h1.067v-1.067z"></path>
            <path fill="#4d5ae5" style="fill: var(--color1, #4d5ae5)" d="M5.867 6.122h-1.067v1.067h1.067v-1.067z"></path>
            <path fill="#4d5ae5" style="fill: var(--color1, #4d5ae5)" d="M5.867 8.255h-1.067v1.067h1.067v-1.067z"></path>
            <path fill="#4d5ae5" style="fill: var(--color1, #4d5ae5)" d="M6.933 7.189h-1.067v1.067h1.067v-1.067z"></path>
            <path fill="#4d5ae5" style="fill: var(--color1, #4d5ae5)" d="M4.8 7.189h-1.067v1.067h1.067v-1.067z"></path>
            <path fill="#2e2f42" style="fill: var(--color2, #2e2f42)" d="M24.715 14.159c-0.287-0.388-0.709-0.637-1.188-0.705-0.481-0.068-0.956 0.058-1.34 0.352l-1.252 0.96-1.898 1.417-1.358-0.541c2.421-1.086 4.114-3.508 4.114-6.32 0-3.823-3.123-6.933-6.961-6.933s-6.961 3.11-6.961 6.933c0 1.386 0.414 2.674 1.12 3.758l-2.764-0.024c-0.002 0-0.003 0-0.005 0-0.009 0-0.015 0.004-0.023 0.005-0.053 0.002-0.105 0.013-0.155 0.031-0.013 0.005-0.026 0.008-0.038 0.013-0.006 0.003-0.013 0.003-0.019 0.006l-3.233 1.596c-0.001 0-0.001 0-0.001 0.001l-1.893 0.911c-0.021 0.009-0.042 0.021-0.063 0.035-0.755 0.502-1.012 1.489-0.598 2.295 0.22 0.429 0.595 0.745 1.056 0.889 0.178 0.055 0.359 0.083 0.539 0.083 0.29 0 0.577-0.071 0.839-0.211l1.388-0.738 2.264-1.169 1.357-0.008-5.442 5.416c-0.001 0.001-0.001 0.001-0.002 0.001l-1.339 1.333c-0.316 0.315-0.49 0.732-0.49 1.178s0.174 0.863 0.49 1.179c0.325 0.323 0.752 0.485 1.179 0.485s0.854-0.162 1.18-0.485l1.314-1.309 1.741-1.3 0.901 0.897-1.762 1.754c-0 0.001-0.001 0.001-0.002 0.001l-1.339 1.333c-0.316 0.315-0.49 0.732-0.49 1.178s0.174 0.863 0.49 1.179c0.325 0.323 0.753 0.485 1.18 0.485s0.855-0.162 1.18-0.485l3.482-3.467c0.001-0.001 0.001-0.001 0.001-0.002l1.010-1-0.004-0.004c0.006-0.006 0.015-0.009 0.022-0.015l5.166-5.658 3.471 0.494c0.025 0.004 0.050 0.005 0.075 0.005 0.065 0 0.127-0.015 0.187-0.038 0.018-0.006 0.033-0.015 0.050-0.023 0.019-0.010 0.039-0.015 0.058-0.027l3.213-2.133c0.012-0.008 0.018-0.021 0.029-0.029 0.013-0.010 0.029-0.014 0.041-0.026l1.271-1.191c0.662-0.62 0.753-1.635 0.212-2.362zM2.13 17.77c-0.173 0.093-0.37 0.111-0.558 0.052-0.187-0.058-0.338-0.186-0.427-0.358-0.161-0.314-0.068-0.695 0.214-0.902l1.314-0.632 0.449 1.313-0.992 0.527zM5.628 15.942l-1.548 0.8-0.439-1.283 2.027-1.001-0.040 1.484zM20.727 9.322c0 0.918-0.219 1.785-0.599 2.559l-4.181-1.899c-0.044-0.573-0.341-1.075-0.788-1.388l1.464-4.86c2.378 0.756 4.105 2.974 4.105 5.588zM8.938 9.322c0-3.235 2.644-5.867 5.894-5.867 0.253 0 0.5 0.021 0.745 0.052l-1.432 4.754c-0.019-0.001-0.037-0.006-0.057-0.006-1.033 0-1.873 0.837-1.873 1.867s0.84 1.867 1.873 1.867c0.694 0 1.294-0.383 1.618-0.945l3.862 1.755c-1.075 1.446-2.795 2.39-4.737 2.39-3.25 0-5.894-2.632-5.894-5.867zM14.894 10.122c0 0.441-0.362 0.8-0.806 0.8s-0.806-0.359-0.806-0.8c0-0.441 0.362-0.8 0.806-0.8s0.806 0.359 0.806 0.8zM2.465 25.146c-0.236 0.234-0.619 0.234-0.854 0.001-0.114-0.114-0.176-0.263-0.176-0.423s0.062-0.309 0.176-0.421l0.962-0.958 0.851 0.848-0.959 0.955zM5.679 28.88c-0.236 0.234-0.619 0.235-0.855 0.001-0.114-0.114-0.176-0.263-0.176-0.423s0.062-0.309 0.176-0.421l0.963-0.959 0.852 0.848-0.96 0.955zM9.16 25.411c-0.001 0-0.001 0-0.002 0.001l-1.765 1.76-0.852-0.848 1.763-1.755c0 0 0 0 0-0s0.001-0.001 0.002-0.001c0.040-0.040 0.065-0.088 0.090-0.135 0.007-0.014 0.020-0.026 0.026-0.040 0.017-0.041 0.019-0.085 0.026-0.129 0.003-0.025 0.014-0.047 0.014-0.073 0-0.036-0.013-0.070-0.020-0.106-0.006-0.032-0.006-0.065-0.019-0.095-0.020-0.050-0.055-0.094-0.091-0.138-0.010-0.012-0.014-0.027-0.025-0.038 0 0 0 0-0.001 0s-0.001-0.002-0.001-0.002l-1.607-1.6c-0.017-0.017-0.039-0.024-0.058-0.038-0.028-0.022-0.055-0.042-0.087-0.058-0.030-0.015-0.061-0.024-0.093-0.033-0.034-0.010-0.067-0.017-0.103-0.020-0.033-0.002-0.063 0.001-0.095 0.005-0.036 0.004-0.069 0.009-0.104 0.020-0.034 0.011-0.063 0.027-0.094 0.045-0.020 0.011-0.042 0.015-0.061 0.029l-1.773 1.324-0.901-0.897 2.399-2.386 4.361 4.289-0.928 0.919zM15.979 18.394c-0.015-0.002-0.030 0.004-0.045 0.003-0.039-0.002-0.076 0.001-0.115 0.007-0.030 0.005-0.059 0.011-0.088 0.021-0.034 0.012-0.065 0.028-0.097 0.047-0.030 0.018-0.057 0.037-0.083 0.061-0.013 0.011-0.028 0.017-0.040 0.029l-4.698 5.146-4.328-4.257 2.833-2.818c0.209-0.208 0.21-0.546 0.002-0.755-0.105-0.105-0.243-0.157-0.381-0.156v-0.001l-2.219 0.013 0.028-1.607 3.104 0.027c1.265 1.294 3.029 2.101 4.981 2.101 0.437 0 0.864-0.045 1.279-0.123 0.040 0.032 0.079 0.065 0.13 0.085l2.41 0.96 0.152 0.758 0.178 0.885-3.003-0.427zM20.020 18.572l-0.313-1.558 1.446-1.080 0.947 1.257-2.080 1.381zM23.774 15.741l-0.838 0.785-0.931-1.236 0.831-0.637c0.155-0.119 0.351-0.168 0.543-0.143 0.193 0.027 0.364 0.128 0.48 0.284 0.217 0.292 0.18 0.699-0.085 0.947z"></path>
            <path fill="#2e2f42" style="fill: var(--color2, #2e2f42)" d="M13.602 18.544l-2.143-2.133c-0.207-0.207-0.545-0.207-0.753 0l-2.142 2.133c-0.1 0.101-0.157 0.236-0.157 0.378s0.056 0.278 0.157 0.378l2.142 2.133c0.104 0.103 0.241 0.155 0.377 0.155s0.273-0.052 0.376-0.155l2.143-2.133c0.1-0.1 0.157-0.236 0.157-0.378s-0.057-0.278-0.157-0.378zM11.083 20.303l-1.387-1.381 1.387-1.381 1.387 1.381-1.387 1.381z"></path>
            <path fill="#2e2f42" style="fill: var(--color2, #2e2f42)" d="M17.164 5.071l-0.258 1.036c0.071 0.018 1.738 0.452 1.738 2.149h1.067c-0-2.017-1.666-2.965-2.547-3.185z"></path>
            <path fill="#2e2f42" style="fill: var(--color2, #2e2f42)" d="M19.711 9.322h-1.067v1.067h1.067v-1.067z"></path>
    </symbol>

    <!-- Social Media Icons -->
    <symbol id="icon-x" viewBox="0 0 32 32">
        <title>x</title>
            <path d="M24.325 3h4.411l-9.636 11.013 11.336 14.987h-8.876l-6.952-9.089-7.955 9.089h-4.413l10.307-11.78-10.875-14.22h9.101l6.284 8.308zM22.777 26.36h2.444l-15.776-20.859h-2.623z"></path>
    </symbol>

    <symbol id="icon-instagram" viewBox="0 0 32 32">
        <title>instagram</title>
            <path d="M16 2.881c4.275 0 4.781 0.019 6.462 0.094 1.563 0.069 2.406 0.331 2.969 0.55 0.744 0.288 1.281 0.638 1.837 1.194 0.563 0.563 0.906 1.094 1.2 1.838 0.219 0.563 0.481 1.412 0.55 2.969 0.075 1.688 0.094 2.194 0.094 6.463s-0.019 4.781-0.094 6.463c-0.069 1.563-0.331 2.406-0.55 2.969-0.288 0.744-0.637 1.281-1.194 1.837-0.563 0.563-1.094 0.906-1.837 1.2-0.563 0.219-1.413 0.481-2.969 0.55-1.688 0.075-2.194 0.094-6.463 0.094s-4.781-0.019-6.463-0.094c-1.563-0.069-2.406-0.331-2.969-0.55-0.744-0.288-1.281-0.637-1.838-1.194-0.563-0.563-0.906-1.094-1.2-1.837-0.219-0.563-0.481-1.413-0.55-2.969-0.075-1.688-0.094-2.194-0.094-6.463s0.019-4.781 0.094-6.463c0.069-1.563 0.331-2.406 0.55-2.969 0.288-0.744 0.638-1.281 1.194-1.838 0.563-0.563 1.094-0.906 1.838-1.2 0.563-0.219 1.412-0.481 2.969-0.55 1.681-0.075 2.188-0.094 6.463-0.094zM16 0c-4.344 0-4.887 0.019-6.594 0.094-1.7 0.075-2.869 0.35-3.881 0.744-1.056 0.412-1.95 0.956-2.837 1.85-0.894 0.888-1.438 1.781-1.85 2.831-0.394 1.019-0.669 2.181-0.744 3.881-0.075 1.713-0.094 2.256-0.094 6.6s0.019 4.887 0.094 6.594c0.075 1.7 0.35 2.869 0.744 3.881 0.413 1.056 0.956 1.95 1.85 2.837 0.887 0.887 1.781 1.438 2.831 1.844 1.019 0.394 2.181 0.669 3.881 0.744 1.706 0.075 2.25 0.094 6.594 0.094s4.888-0.019 6.594-0.094c1.7-0.075 2.869-0.35 3.881-0.744 1.050-0.406 1.944-0.956 2.831-1.844s1.438-1.781 1.844-2.831c0.394-1.019 0.669-2.181 0.744-3.881 0.075-1.706 0.094-2.25 0.094-6.594s-0.019-4.887-0.094-6.594c-0.075-1.7-0.35-2.869-0.744-3.881-0.394-1.063-0.938-1.956-1.831-2.844-0.887-0.887-1.781-1.438-2.831-1.844-1.019-0.394-2.181-0.669-3.881-0.744-1.712-0.081-2.256-0.1-6.6-0.1v0z"></path>
            <path d="M16 7.781c-4.537 0-8.219 3.681-8.219 8.219s3.681 8.219 8.219 8.219 8.219-3.681 8.219-8.219c0-4.537-3.681-8.219-8.219-8.219zM16 21.331c-2.944 0-5.331-2.387-5.331-5.331s2.387-5.331 5.331-5.331c2.944 0 5.331 2.387 5.331 5.331s-2.387 5.331-5.331 5.331z"></path>
            <path d="M26.462 7.456c0 1.060-0.859 1.919-1.919 1.919s-1.919-0.859-1.919-1.919c0-1.060 0.859-1.919 1.919-1.919s1.919 0.859 1.919 1.919z"></path>
    </symbol>

    <symbol id="icon-facebook" viewBox="0 0 32 32">
        <title>facebook</title>
            <path d="M19 6h5v-6h-5c-3.86 0-7 3.14-7 7v3h-4v6h4v16h6v-16h5l1-6h-6v-3c0-0.542 0.458-1 1-1z"></path>
    </symbol>

    <symbol id="icon-twitter" viewBox="0 0 32 32">
        <title>twitter</title>
            <path d="M32 7.075c-1.175 0.525-2.444 0.875-3.769 1.031 1.356-0.813 2.394-2.1 2.887-3.631-1.269 0.75-2.675 1.3-4.169 1.594-1.2-1.275-2.906-2.069-4.794-2.069-3.625 0-6.563 2.938-6.563 6.563 0 0.512 0.056 1.012 0.169 1.494-5.456-0.275-10.294-2.888-13.531-6.862-0.563 0.969-0.887 2.1-0.887 3.3 0 2.275 1.156 4.287 2.919 5.463-1.075-0.031-2.087-0.331-2.975-0.819 0 0.025 0 0.056 0 0.081 0 3.181 2.263 5.838 5.269 6.437-0.55 0.15-1.131 0.231-1.731 0.231-0.425 0-0.831-0.044-1.237-0.119 0.838 2.606 3.263 4.506 6.131 4.563-2.25 1.762-5.075 2.813-8.156 2.813-0.531 0-1.050-0.031-1.569-0.094 2.913 1.869 6.362 2.95 10.069 2.95 12.075 0 18.681-10.006 18.681-18.681 0-0.287-0.006-0.569-0.019-0.85 1.281-0.919 2.394-2.075 3.275-3.394z"></path>
    </symbol>

    <symbol id="icon-linkedin2" viewBox="0 0 32 32">
        <title>linkedin2</title>
            <path d="M12 12h5.535v2.837h0.079c0.77-1.381 2.655-2.837 5.464-2.837 5.842 0 6.922 3.637 6.922 8.367v9.633h-5.769v-8.54c0-2.037-0.042-4.657-3.001-4.657-3.005 0-3.463 2.218-3.463 4.509v8.688h-5.767v-18z"></path>
            <path d="M2 12h6v18h-6v-18z"></path>
            <path d="M8 7c0 1.657-1.343 3-3 3s-3-1.343-3-3c0-1.657 1.343-3 3-3s3 1.343 3 3z"></path>
    </symbol>

    <!-- Client Icons -->
    <symbol id="icon-Client-1" viewBox="0 0 45 24">
        <title>Client-1</title>
            <path d="M16.286 3l3.003 2.861-5.575-0.003v13.882h14.571v-5.308l3 2.858v-14.291h-15zM28.154 14.097l-8.516-8.113h8.516v8.113zM25.51 17.71h-9.49v-9.337h0.671v8.704h8.819v0.632zM17.913 22.312l-0.354-0.727h-0.292l0.513 0.963v0.561h0.265v-0.561l0.513-0.963h-0.291l-0.354 0.727zM19.216 21.585h0.063l0.575 1.523h-0.276l-0.123-0.357h-0.59l-0.123 0.357h-0.275l0.573-1.523h0.176zM18.937 22.543h0.446l-0.223-0.646-0.223 0.646zM20.778 22.291c-0.011-0.015-0.023-0.029-0.033-0.043-0.039-0.052-0.069-0.101-0.091-0.15s-0.032-0.099-0.032-0.151c0-0.079 0.016-0.148 0.049-0.205s0.079-0.101 0.139-0.132c0.060-0.031 0.13-0.047 0.21-0.047 0.077 0 0.144 0.016 0.2 0.047s0.1 0.071 0.13 0.122c0.031 0.051 0.046 0.107 0.046 0.167 0 0.048-0.009 0.092-0.026 0.132s-0.041 0.076-0.072 0.109c-0.031 0.033-0.066 0.064-0.107 0.093l-0.106 0.077 0.302 0.356c0.010-0.020 0.019-0.040 0.027-0.062 0.026-0.067 0.039-0.141 0.039-0.223h0.218c0 0.074-0.007 0.144-0.022 0.21s-0.037 0.128-0.068 0.184c-0.013 0.023-0.027 0.046-0.043 0.067l0.223 0.263h-0.292l-0.089-0.104c-0.048 0.036-0.1 0.065-0.156 0.085-0.074 0.026-0.153 0.040-0.236 0.040-0.101 0-0.189-0.019-0.263-0.055s-0.131-0.088-0.172-0.153c-0.040-0.065-0.060-0.139-0.060-0.223 0-0.062 0.013-0.116 0.039-0.163s0.061-0.091 0.106-0.132c0.041-0.037 0.088-0.075 0.141-0.112zM20.903 22.444l-0.032 0.023c-0.037 0.030-0.065 0.059-0.083 0.087s-0.029 0.052-0.035 0.075c-0.006 0.023-0.008 0.043-0.008 0.061 0 0.045 0.009 0.085 0.028 0.121s0.048 0.065 0.085 0.087c0.038 0.021 0.083 0.031 0.137 0.031 0.058 0 0.114-0.013 0.168-0.039 0.027-0.013 0.053-0.029 0.078-0.048l-0.339-0.399zM20.963 22.166l0.093-0.063c0.044-0.029 0.075-0.058 0.094-0.086s0.028-0.064 0.028-0.107c0-0.036-0.014-0.070-0.042-0.1s-0.067-0.046-0.118-0.046c-0.036 0-0.066 0.008-0.090 0.025s-0.043 0.038-0.055 0.065c-0.012 0.026-0.018 0.056-0.018 0.089 0 0.031 0.008 0.064 0.024 0.097s0.038 0.067 0.066 0.104c0.006 0.007 0.012 0.015 0.017 0.022zM23.629 22.612h-0.262c-0.008 0.066-0.024 0.122-0.048 0.168s-0.059 0.080-0.106 0.104c-0.046 0.024-0.106 0.036-0.181 0.036-0.061 0-0.114-0.012-0.158-0.037s-0.080-0.059-0.109-0.104c-0.028-0.045-0.049-0.098-0.063-0.16s-0.020-0.133-0.020-0.209v-0.129c0-0.081 0.007-0.153 0.022-0.216s0.038-0.117 0.068-0.16c0.030-0.043 0.067-0.076 0.112-0.098s0.097-0.034 0.157-0.034c0.073 0 0.133 0.013 0.178 0.038s0.080 0.060 0.103 0.107c0.024 0.047 0.039 0.103 0.046 0.168h0.262c-0.010-0.102-0.039-0.192-0.086-0.271s-0.111-0.141-0.195-0.185c-0.084-0.045-0.186-0.067-0.308-0.067-0.096 0-0.182 0.017-0.258 0.050s-0.141 0.082-0.196 0.145c-0.054 0.063-0.096 0.138-0.126 0.227s-0.043 0.188-0.043 0.297v0.127c0 0.11 0.014 0.209 0.042 0.297s0.070 0.164 0.123 0.227c0.054 0.062 0.118 0.11 0.194 0.144s0.16 0.050 0.254 0.050c0.123 0 0.227-0.022 0.313-0.067s0.152-0.106 0.2-0.183c0.047-0.078 0.075-0.167 0.084-0.267zM25.082 22.388v-0.084c0-0.115-0.015-0.218-0.046-0.309s-0.073-0.169-0.129-0.233c-0.056-0.065-0.122-0.114-0.2-0.148s-0.163-0.051-0.257-0.051c-0.093 0-0.179 0.017-0.256 0.051s-0.143 0.083-0.2 0.148c-0.056 0.064-0.099 0.142-0.13 0.233s-0.046 0.194-0.046 0.309v0.084c0 0.115 0.015 0.218 0.046 0.31s0.075 0.169 0.132 0.233c0.057 0.064 0.123 0.113 0.2 0.148s0.163 0.050 0.256 0.050c0.094 0 0.18-0.017 0.257-0.050s0.144-0.083 0.199-0.148c0.056-0.064 0.099-0.142 0.129-0.233s0.045-0.195 0.045-0.31zM24.819 22.302v0.086c0 0.085-0.008 0.16-0.025 0.226s-0.040 0.121-0.071 0.166c-0.031 0.045-0.070 0.078-0.115 0.101s-0.097 0.033-0.156 0.033c-0.058 0-0.109-0.011-0.155-0.033s-0.084-0.057-0.117-0.101c-0.032-0.045-0.056-0.101-0.073-0.166s-0.025-0.141-0.025-0.226v-0.086c0-0.085 0.008-0.16 0.025-0.225s0.041-0.12 0.072-0.164c0.032-0.045 0.071-0.078 0.116-0.1s0.097-0.035 0.155-0.035 0.11 0.012 0.156 0.035c0.046 0.022 0.085 0.056 0.116 0.1s0.056 0.099 0.072 0.164c0.017 0.065 0.025 0.14 0.025 0.225z"></path>
    </symbol>

    <symbol id="icon-Client-2" viewBox="0 0 45 24">
        <title>Client-2</title>
            <path d="M21.477 2.543h-0.059c-0.090-0.005-0.18-0.008-0.27-0.010v0h-0.195c-0.17 0-0.344 0.004-0.516 0.013-0.013-0.001-0.026-0.001-0.039 0-1.562 0.088-3.092 0.479-4.507 1.15l-0.185 0.089v9.489l0.434-0.147c0.381-0.131 0.786-0.248 1.206-0.357 1.134-0.291 2.299-0.446 3.469-0.461v1.247c-0.155 0.001-0.306 0.005-0.456 0.013h-0.036c-0.901 0.049-1.795 0.187-2.669 0.41-1.107 0.277-2.176 0.694-3.18 1.239v-12.17c1.043-0.608 2.166-1.065 3.336-1.357 1.027-0.265 2.083-0.401 3.144-0.405h0.183c0.219 0.005 0.433 0.015 0.633 0.031 0.528 0.037 1.053 0.121 1.567 0.25v1.227c-0.499-0.116-1.007-0.193-1.518-0.229-0.010-0.001-0.021-0.002-0.031-0.003-0.106-0.009-0.212-0.018-0.31-0.018zM23.637 3.798c0.272 0.021 0.554 0.031 0.839 0.031 1.115-0.004 2.225-0.146 3.306-0.424 1.107-0.278 2.175-0.695 3.179-1.24v11.953c-1.043 0.608-2.167 1.065-3.337 1.357-1.027 0.264-2.084 0.4-3.144 0.404-0.804 0.006-1.605-0.088-2.385-0.281v-12.031c0.184 0.042 0.374 0.082 0.567 0.114 0.317 0.053 0.651 0.093 0.976 0.117zM29.72 3.89l-0.434 0.146c-0.399 0.134-0.801 0.254-1.206 0.361-1.177 0.303-2.387 0.458-3.603 0.462-0.283 0-0.543-0.008-0.795-0.024l-0.346-0.023v9.762l0.297 0.026c0.275 0.024 0.559 0.036 0.846 0.036 0.957-0.004 1.91-0.127 2.837-0.367 0.763-0.191 1.506-0.458 2.217-0.797l0.185-0.089v-9.492z"></path>
            <path d="M15.316 19.377c-0.062-0.065-0.137-0.115-0.221-0.149s-0.172-0.049-0.262-0.046c-0.095-0.001-0.19 0.016-0.279 0.052-0.081 0.032-0.155 0.081-0.217 0.143s-0.109 0.136-0.14 0.218c-0.034 0.086-0.051 0.177-0.050 0.269v1.626c-0.004 0.115 0.018 0.229 0.064 0.333 0.038 0.083 0.094 0.158 0.163 0.218 0.065 0.055 0.141 0.094 0.223 0.116 0.079 0.022 0.161 0.034 0.243 0.034 0.091 0.001 0.18-0.018 0.262-0.057 0.081-0.036 0.155-0.087 0.217-0.15 0.060-0.063 0.109-0.137 0.142-0.218 0.035-0.082 0.052-0.17 0.052-0.259v-0.182h-0.425v0.145c0.001 0.050-0.007 0.099-0.025 0.145-0.014 0.035-0.035 0.066-0.062 0.092-0.026 0.021-0.056 0.037-0.089 0.047-0.029 0.010-0.059 0.015-0.089 0.015-0.038 0.004-0.076-0.001-0.111-0.017s-0.065-0.040-0.088-0.071c-0.040-0.065-0.060-0.141-0.056-0.218v-1.516c-0.003-0.084 0.015-0.167 0.052-0.243 0.022-0.034 0.053-0.062 0.090-0.079s0.078-0.024 0.118-0.019c0.037-0.001 0.073 0.006 0.106 0.022s0.062 0.040 0.084 0.069c0.048 0.062 0.072 0.139 0.070 0.218v0.141h0.421v-0.166c0.001-0.097-0.017-0.194-0.052-0.284-0.031-0.085-0.080-0.163-0.142-0.229z"></path>
            <path d="M17.841 19.358c-0.136-0.114-0.307-0.178-0.484-0.179-0.087 0-0.172 0.016-0.254 0.046-0.083 0.030-0.159 0.075-0.224 0.133-0.070 0.063-0.127 0.141-0.165 0.228-0.043 0.099-0.064 0.207-0.062 0.315v1.56c-0.003 0.11 0.018 0.219 0.062 0.319 0.038 0.084 0.095 0.158 0.165 0.218 0.065 0.060 0.141 0.107 0.224 0.137 0.081 0.030 0.167 0.045 0.254 0.046s0.172-0.016 0.254-0.046c0.085-0.031 0.163-0.077 0.23-0.137s0.122-0.135 0.16-0.218c0.044-0.101 0.065-0.21 0.062-0.319v-1.56c0.002-0.108-0.019-0.216-0.062-0.315-0.038-0.086-0.092-0.163-0.16-0.228zM17.643 21.46c0.004 0.042-0.002 0.083-0.017 0.122s-0.038 0.074-0.068 0.103c-0.056 0.047-0.127 0.073-0.2 0.073s-0.144-0.026-0.2-0.073c-0.030-0.029-0.053-0.064-0.068-0.103s-0.020-0.081-0.017-0.122v-1.56c-0.004-0.042 0.002-0.083 0.017-0.122s0.038-0.074 0.068-0.103c0.056-0.047 0.127-0.073 0.2-0.073s0.144 0.026 0.2 0.073c0.030 0.029 0.053 0.064 0.068 0.103s0.020 0.081 0.017 0.122v1.56z"></path>
            <path d="M21.157 22.157v-2.952h-0.409l-0.537 1.563h-0.008l-0.541-1.563h-0.404v2.952h0.422v-1.796h0.008l0.413 1.27h0.21l0.416-1.27h0.008v1.796h0.422z"></path>
            <path d="M23.553 19.412c-0.065-0.073-0.147-0.128-0.239-0.161-0.099-0.032-0.202-0.048-0.306-0.046h-0.627v2.952h0.421v-1.153h0.217c0.131 0.006 0.262-0.022 0.379-0.081 0.096-0.053 0.175-0.131 0.231-0.226 0.049-0.079 0.081-0.166 0.096-0.257 0.017-0.111 0.024-0.223 0.023-0.336 0.004-0.142-0.010-0.284-0.041-0.422-0.028-0.102-0.081-0.196-0.155-0.271zM23.337 20.312c-0.002 0.053-0.015 0.106-0.039 0.154-0.024 0.045-0.062 0.082-0.108 0.104-0.062 0.028-0.13 0.041-0.198 0.037h-0.192v-1.004h0.217c0.065-0.003 0.13 0.010 0.19 0.037 0.044 0.025 0.078 0.063 0.099 0.109 0.023 0.052 0.036 0.108 0.037 0.165 0 0.062 0 0.128 0 0.196s0.004 0.139 0 0.203h-0.004z"></path>
            <path d="M25.546 19.205h-0.345l-0.65 2.952h0.421l0.124-0.634h0.574l0.124 0.634h0.421l-0.667-2.952zM25.158 21.12l0.207-1.070h0.008l0.206 1.070h-0.421z"></path>
            <path d="M28.264 20.983h-0.008l-0.635-1.779h-0.404v2.952h0.421v-1.775h0.009l0.643 1.775h0.396v-2.952h-0.421v1.779z"></path>
            <path d="M30.835 19.205l-0.338 1.174h-0.009l-0.338-1.174h-0.446l0.578 1.704v1.248h0.421v-1.248l0.578-1.704h-0.446z"></path>
            <path d="M14.143 22.991h0.203v0.569h0.138v-0.569h0.202v-0.117h-0.542v0.117z"></path>
            <path d="M15.847 22.874l-0.266 0.686h0.146l0.056-0.156h0.273l0.059 0.156h0.15l-0.272-0.686h-0.146zM15.825 23.288l0.093-0.254 0.093 0.254h-0.186z"></path>
            <path d="M17.532 23.307h0.158v0.088c-0.046 0.037-0.104 0.057-0.163 0.058-0.028 0.002-0.055-0.004-0.081-0.015s-0.047-0.029-0.065-0.050c-0.036-0.052-0.054-0.115-0.051-0.179 0-0.153 0.066-0.229 0.197-0.229 0.035-0.003 0.069 0.006 0.098 0.026s0.049 0.050 0.057 0.083l0.136-0.026c-0.029-0.134-0.126-0.202-0.291-0.202-0.088-0.002-0.174 0.029-0.24 0.088-0.035 0.034-0.061 0.075-0.078 0.121s-0.024 0.094-0.020 0.143c-0.004 0.094 0.027 0.186 0.088 0.257 0.034 0.035 0.074 0.061 0.119 0.079s0.093 0.025 0.141 0.021c0.107 0.003 0.211-0.036 0.291-0.109v-0.27h-0.297v0.116z"></path>
            <path d="M19.253 22.874h-0.139v0.686h0.48v-0.117h-0.341v-0.569z"></path>
            <path d="M20.707 22.874h-0.139v0.686h0.139v-0.686z"></path>
            <path d="M22.13 23.332l-0.281-0.458h-0.134v0.686h0.129v-0.448l0.275 0.448h0.138v-0.686h-0.127v0.458z"></path>
            <path d="M23.416 23.258h0.342v-0.117h-0.342v-0.15h0.368v-0.117h-0.506v0.686h0.52v-0.117h-0.382v-0.185z"></path>
            <path d="M26.534 23.144h-0.27v-0.27h-0.138v0.686h0.138v-0.3h0.27v0.3h0.138v-0.686h-0.138v0.27z"></path>
            <path d="M27.827 23.258h0.343v-0.117h-0.343v-0.15h0.369v-0.117h-0.506v0.686h0.519v-0.117h-0.382v-0.185z"></path>
            <path d="M29.581 23.258c0.119-0.019 0.18-0.082 0.18-0.191 0.003-0.029-0.001-0.059-0.013-0.086s-0.031-0.050-0.054-0.067c-0.062-0.031-0.131-0.045-0.201-0.040h-0.291v0.685h0.138v-0.287h0.027c0.029-0.002 0.059 0.003 0.086 0.015 0.020 0.012 0.037 0.030 0.049 0.050l0.15 0.218h0.165l-0.083-0.134c-0.037-0.066-0.089-0.123-0.152-0.165zM29.443 23.163h-0.102v-0.172h0.108c0.047-0.004 0.095 0.002 0.14 0.016 0.010 0.009 0.018 0.020 0.023 0.032s0.008 0.026 0.007 0.039c-0.001 0.013-0.004 0.026-0.011 0.038s-0.015 0.022-0.026 0.030c-0.045 0.014-0.093 0.019-0.14 0.016z"></path>
            <path d="M30.904 23.258h0.341v-0.117h-0.341v-0.15h0.369v-0.117h-0.507v0.686h0.52v-0.117h-0.382v-0.185z"></path>
    </symbol>

    <symbol id="icon-Client-3" viewBox="0 0 45 24">
        <title>Client-3</title>
            <path d="M15.776 21.096c0.007 0 0.014 0.002 0.020 0.004s0.012 0.006 0.017 0.010l0.095 0.089c-0.073 0.072-0.164 0.13-0.266 0.169-0.119 0.043-0.248 0.063-0.377 0.061-0.122 0.002-0.242-0.017-0.355-0.057-0.101-0.036-0.193-0.091-0.267-0.16-0.076-0.072-0.135-0.155-0.173-0.247-0.041-0.102-0.062-0.209-0.060-0.316-0.002-0.108 0.020-0.216 0.065-0.317 0.041-0.092 0.104-0.176 0.183-0.247 0.081-0.070 0.177-0.124 0.284-0.161 0.117-0.039 0.241-0.058 0.366-0.057 0.116-0.002 0.232 0.015 0.34 0.052 0.094 0.035 0.18 0.083 0.254 0.142l-0.079 0.095c-0.005 0.007-0.012 0.013-0.020 0.017-0.009 0.005-0.021 0.008-0.032 0.007-0.012-0.001-0.024-0.004-0.034-0.010l-0.043-0.025-0.059-0.032c-0.026-0.012-0.052-0.022-0.079-0.031-0.035-0.011-0.071-0.019-0.108-0.025-0.046-0.007-0.094-0.011-0.141-0.010-0.090-0.001-0.179 0.013-0.263 0.042-0.078 0.027-0.148 0.068-0.206 0.119-0.059 0.055-0.104 0.12-0.134 0.19-0.033 0.080-0.050 0.165-0.049 0.251-0.001 0.087 0.015 0.173 0.049 0.255 0.029 0.070 0.073 0.134 0.131 0.189 0.054 0.051 0.121 0.091 0.196 0.117 0.077 0.027 0.16 0.041 0.244 0.040 0.048 0.001 0.097-0.002 0.144-0.008 0.078-0.008 0.153-0.031 0.219-0.068 0.033-0.019 0.064-0.040 0.093-0.063 0.012-0.010 0.028-0.016 0.045-0.016z"></path>
            <path d="M18.508 20.649c0.001 0.107-0.020 0.214-0.064 0.314-0.039 0.091-0.099 0.174-0.178 0.244s-0.174 0.124-0.28 0.16c-0.232 0.075-0.488 0.075-0.719 0-0.105-0.037-0.199-0.091-0.278-0.161-0.079-0.071-0.14-0.155-0.18-0.247-0.085-0.204-0.085-0.426 0-0.63 0.040-0.092 0.101-0.176 0.18-0.248 0.079-0.067 0.174-0.12 0.278-0.155 0.231-0.077 0.488-0.077 0.719 0 0.105 0.036 0.2 0.091 0.279 0.161 0.078 0.070 0.139 0.153 0.179 0.244 0.044 0.101 0.065 0.209 0.064 0.316zM18.26 20.649c0.002-0.086-0.013-0.171-0.045-0.253-0.026-0.070-0.070-0.134-0.127-0.189-0.055-0.052-0.124-0.093-0.2-0.119-0.168-0.055-0.355-0.055-0.523 0-0.076 0.027-0.144 0.067-0.2 0.119-0.058 0.055-0.101 0.119-0.128 0.189-0.060 0.165-0.060 0.341 0 0.505 0.027 0.070 0.070 0.134 0.128 0.189 0.056 0.052 0.124 0.092 0.2 0.118 0.169 0.054 0.354 0.054 0.523 0 0.076-0.026 0.144-0.067 0.2-0.118 0.057-0.055 0.1-0.119 0.127-0.189 0.032-0.081 0.047-0.167 0.045-0.253z"></path>
            <path d="M20.373 20.914l0.025 0.057c0.009-0.020 0.018-0.038 0.027-0.057s0.019-0.038 0.031-0.056l0.605-0.939c0.012-0.016 0.022-0.026 0.034-0.029 0.016-0.004 0.033-0.006 0.050-0.005h0.179v1.527h-0.212v-1.123c0-0.014 0-0.030 0-0.047-0.001-0.017-0.001-0.035 0-0.053l-0.608 0.952c-0.008 0.014-0.020 0.026-0.036 0.035s-0.034 0.013-0.052 0.013h-0.034c-0.018 0-0.037-0.004-0.052-0.013s-0.028-0.021-0.035-0.035l-0.626-0.958c0 0.018 0 0.036 0 0.055s0 0.034 0 0.049v1.123h-0.205v-1.524h0.179c0.017-0.001 0.034 0.001 0.050 0.005 0.015 0.006 0.026 0.017 0.033 0.029l0.618 0.94c0.012 0.017 0.022 0.036 0.031 0.055z"></path>
            <path d="M22.648 20.838v0.572h-0.237v-1.525h0.528c0.1-0.002 0.199 0.010 0.295 0.033 0.077 0.019 0.148 0.051 0.208 0.095 0.053 0.041 0.093 0.093 0.118 0.15 0.028 0.062 0.042 0.128 0.040 0.195 0.001 0.067-0.014 0.133-0.044 0.195-0.028 0.059-0.072 0.111-0.128 0.153-0.061 0.046-0.132 0.080-0.209 0.101-0.092 0.025-0.188 0.037-0.285 0.035l-0.286-0.004zM22.648 20.674h0.286c0.062 0.001 0.124-0.007 0.183-0.023 0.049-0.014 0.094-0.036 0.133-0.066 0.036-0.028 0.063-0.063 0.080-0.101 0.019-0.041 0.029-0.084 0.028-0.128 0.003-0.042-0.005-0.085-0.024-0.124s-0.047-0.075-0.083-0.104c-0.090-0.060-0.204-0.089-0.318-0.082h-0.286v0.629z"></path>
            <path d="M25.828 21.412h-0.187c-0.019 0.001-0.037-0.004-0.052-0.014-0.013-0.010-0.024-0.022-0.031-0.035l-0.161-0.369h-0.808l-0.167 0.369c-0.006 0.013-0.016 0.025-0.030 0.034-0.015 0.010-0.034 0.016-0.053 0.015h-0.187l0.71-1.527h0.246l0.719 1.527zM24.656 20.845h0.667l-0.282-0.622c-0.022-0.047-0.039-0.095-0.053-0.144l-0.027 0.080c-0.008 0.024-0.018 0.047-0.026 0.065l-0.279 0.621z"></path>
            <path d="M26.85 19.892c0.014 0.007 0.026 0.016 0.035 0.027l1.035 1.151c0-0.018 0-0.036 0-0.054s0-0.034 0-0.051v-1.082h0.212v1.527h-0.118c-0.017 0-0.033-0.003-0.049-0.009s-0.027-0.017-0.038-0.028l-1.034-1.15c0.001 0.017 0.001 0.035 0 0.053 0 0.017 0 0.032 0 0.047v1.089h-0.212v-1.527h0.125c0.015-0 0.029 0.002 0.043 0.007z"></path>
            <path d="M29.876 20.804v0.606h-0.237v-0.606l-0.654-0.92h0.212c0.018-0.001 0.036 0.004 0.051 0.013 0.013 0.010 0.024 0.021 0.032 0.034l0.409 0.593c0.017 0.025 0.031 0.049 0.043 0.071s0.021 0.043 0.030 0.065l0.031-0.066c0.011-0.024 0.025-0.047 0.040-0.070l0.403-0.597c0.008-0.012 0.019-0.023 0.031-0.032 0.014-0.011 0.032-0.016 0.051-0.015h0.214l-0.655 0.924z"></path>
            <path d="M20.256 17.322c0.103 0.011 0.207 0.020 0.312 0.028 1.596-0.61 2.947-1.609 3.882-2.871s1.415-2.732 1.379-4.226l-1.759-1.503c0.358 1.59 0.19 3.234-0.483 4.748s-1.827 2.837-3.331 3.823z"></path>
            <path d="M19.628 17.252l0.047 0.008c1.607-0.982 2.832-2.354 3.517-3.937s0.798-3.306 0.325-4.945l-2.506-2.141c1.013 1.76 1.421 3.729 1.176 5.679s-1.133 3.8-2.56 5.336z"></path>
            <path d="M28.125 12.018c-0.426 1.641-1.46 3.122-2.948 4.221-0.435 0.323-0.904 0.611-1.401 0.859 1.212-0.304 2.326-0.843 3.256-1.573s1.652-1.634 2.109-2.64l-1.016-0.867z"></path>
            <path d="M27.726 11.776l-1.447-1.236c-0.028 1.409-0.497 2.787-1.358 3.989s-2.084 2.185-3.541 2.847h0.007c0.325-0 0.649-0.017 0.971-0.049 1.361-0.475 2.564-1.23 3.5-2.198s1.578-2.12 1.867-3.352z"></path>
            <path d="M19.837 5.334l-1.726-1.477c-1.543 0.509-2.87 1.405-3.807 2.57s-1.441 2.544-1.446 3.957v0c0.006 1.562 0.621 3.077 1.748 4.306s2.702 2.102 4.476 2.481c1.583-1.648 2.51-3.684 2.646-5.813s-0.526-4.239-1.89-6.024z"></path>
            <path d="M31.714 11.549c-0.006-1.853-0.87-3.628-2.404-4.938s-3.611-2.049-5.78-2.054c-1.002-0.001-1.996 0.157-2.93 0.466l10.568 9.029c0.362-0.798 0.547-1.647 0.547-2.503z"></path>
    </symbol>

    <symbol id="icon-Client-4" viewBox="0 0 45 24">
        <title>Client-4</title>
            <path d="M10.319 9.222h-0.001c-1.022 0-1.851 0.747-1.851 1.669v0.001c0 0.922 0.829 1.669 1.851 1.669h0.001c1.022 0 1.851-0.747 1.851-1.669v-0.001c0-0.922-0.829-1.669-1.851-1.669z"></path>
            <path d="M23.983 8.688c-0.003-1.28-0.568-2.508-1.572-3.413s-2.365-1.415-3.785-1.418v0c-1.42 0.002-2.782 0.512-3.787 1.418s-1.57 2.133-1.573 3.414v7.060c0 0 10.716-1.076 10.717-7.059v-0.001z"></path>
            <path d="M4.714 18.066c0.003 0.891 0.396 1.745 1.095 2.375s1.645 0.985 2.633 0.988c0.988-0.003 1.934-0.358 2.633-0.987s1.092-1.483 1.095-2.374v-4.913c0 0-7.456 0.749-7.456 4.912zM8.442 18.946c-0.193 0-0.382-0.052-0.542-0.148s-0.286-0.234-0.36-0.395c-0.074-0.161-0.093-0.338-0.056-0.509s0.131-0.328 0.267-0.451c0.137-0.123 0.311-0.207 0.5-0.241s0.386-0.017 0.564 0.050c0.178 0.067 0.331 0.179 0.438 0.324s0.165 0.315 0.165 0.489c0.001 0.116-0.024 0.231-0.073 0.338s-0.121 0.205-0.211 0.287c-0.091 0.082-0.199 0.147-0.317 0.192s-0.246 0.067-0.374 0.067v-0.003z"></path>
            <path d="M15.261 17.364v1.828h-0.377v-1.828h0.377zM15.989 18.145v0.294h-0.831v-0.294h0.831zM16.077 17.364v0.295h-0.919v-0.295h0.919zM17.797 18.235v0.087c0 0.139-0.019 0.264-0.057 0.374s-0.091 0.205-0.159 0.282c-0.069 0.077-0.151 0.136-0.246 0.177s-0.2 0.062-0.315 0.062c-0.115 0-0.22-0.021-0.315-0.062s-0.177-0.1-0.246-0.177c-0.069-0.078-0.123-0.172-0.162-0.282s-0.057-0.235-0.057-0.374v-0.087c0-0.14 0.019-0.265 0.057-0.374s0.091-0.205 0.159-0.283c0.070-0.078 0.152-0.137 0.246-0.178s0.2-0.061 0.315-0.061c0.116 0 0.221 0.020 0.315 0.061s0.177 0.1 0.246 0.178c0.069 0.078 0.123 0.172 0.161 0.283s0.058 0.234 0.058 0.374zM17.417 18.322v-0.089c0-0.097-0.009-0.182-0.026-0.256s-0.044-0.136-0.078-0.186c-0.034-0.050-0.076-0.088-0.126-0.113s-0.106-0.039-0.169-0.039c-0.064 0-0.12 0.013-0.169 0.039s-0.090 0.063-0.124 0.113c-0.034 0.050-0.059 0.112-0.077 0.186s-0.026 0.159-0.026 0.256v0.089c0 0.096 0.009 0.182 0.026 0.256s0.044 0.136 0.078 0.187c0.034 0.050 0.076 0.088 0.126 0.114s0.106 0.039 0.169 0.039c0.064 0 0.12-0.013 0.169-0.039s0.091-0.064 0.124-0.114c0.034-0.051 0.059-0.113 0.077-0.187s0.026-0.16 0.026-0.256zM19.020 18.713c0-0.033-0.005-0.062-0.015-0.088s-0.027-0.051-0.053-0.073c-0.026-0.023-0.062-0.045-0.109-0.067s-0.108-0.044-0.182-0.068c-0.083-0.027-0.162-0.057-0.236-0.090s-0.139-0.072-0.196-0.117c-0.056-0.045-0.1-0.098-0.133-0.157s-0.048-0.128-0.048-0.207c0-0.076 0.017-0.145 0.050-0.207s0.080-0.116 0.141-0.161c0.060-0.045 0.131-0.080 0.213-0.104s0.174-0.036 0.272-0.036c0.135 0 0.252 0.024 0.353 0.073s0.178 0.115 0.234 0.2c0.056 0.085 0.084 0.181 0.084 0.29h-0.374c0-0.054-0.011-0.1-0.034-0.141s-0.055-0.073-0.1-0.097c-0.044-0.023-0.1-0.035-0.168-0.035-0.065 0-0.12 0.010-0.163 0.030s-0.076 0.046-0.098 0.079c-0.022 0.033-0.033 0.069-0.033 0.11 0 0.031 0.008 0.059 0.023 0.084s0.039 0.049 0.070 0.070c0.031 0.022 0.069 0.042 0.114 0.062s0.098 0.038 0.157 0.057c0.1 0.030 0.187 0.064 0.262 0.102s0.14 0.080 0.191 0.127c0.051 0.047 0.090 0.1 0.116 0.159s0.039 0.127 0.039 0.202c0 0.080-0.016 0.151-0.046 0.213s-0.076 0.116-0.134 0.159c-0.059 0.044-0.128 0.077-0.21 0.099s-0.172 0.034-0.272 0.034c-0.090 0-0.18-0.012-0.267-0.035s-0.168-0.061-0.24-0.109c-0.071-0.049-0.128-0.111-0.171-0.186s-0.064-0.164-0.064-0.267h0.378c0 0.057 0.009 0.105 0.026 0.144s0.042 0.071 0.074 0.095c0.033 0.024 0.071 0.042 0.116 0.053s0.095 0.016 0.148 0.016c0.065 0 0.119-0.009 0.161-0.028s0.074-0.044 0.094-0.077c0.021-0.033 0.031-0.069 0.031-0.11zM20.47 17.364v1.828h-0.375v-1.828h0.375zM21.033 17.364v0.295h-1.492v-0.295h1.492zM22.474 18.898v0.294h-0.973v-0.294h0.973zM21.624 17.364v1.828h-0.377v-1.828h0.377zM22.347 18.108v0.286h-0.846v-0.286h0.846zM22.473 17.364v0.295h-0.972v-0.295h0.972zM22.694 17.364h0.682c0.14 0 0.26 0.021 0.36 0.063s0.179 0.104 0.234 0.186 0.082 0.183 0.082 0.303c0 0.098-0.017 0.182-0.050 0.252s-0.079 0.128-0.139 0.175c-0.059 0.046-0.129 0.083-0.21 0.11l-0.119 0.063h-0.593l-0.003-0.294h0.441c0.066 0 0.121-0.012 0.164-0.035s0.076-0.056 0.098-0.098c0.023-0.042 0.034-0.090 0.034-0.146 0-0.059-0.011-0.109-0.033-0.152s-0.055-0.075-0.099-0.098c-0.044-0.023-0.1-0.034-0.167-0.034h-0.305v1.533h-0.377v-1.828zM23.716 19.192l-0.417-0.815 0.398-0.002 0.422 0.8v0.018h-0.403zM25.694 18.54h-0.466v-0.294h0.466c0.072 0 0.131-0.012 0.176-0.035s0.078-0.058 0.099-0.1c0.021-0.043 0.031-0.091 0.031-0.144s-0.010-0.105-0.031-0.152c-0.021-0.047-0.054-0.085-0.099-0.113s-0.104-0.043-0.176-0.043h-0.335v1.533h-0.377v-1.828h0.712c0.143 0 0.266 0.026 0.368 0.078s0.182 0.122 0.236 0.212c0.054 0.090 0.082 0.194 0.082 0.31 0 0.118-0.027 0.22-0.082 0.306s-0.133 0.153-0.236 0.2c-0.102 0.047-0.225 0.070-0.368 0.070zM27.866 18.898v0.294h-0.973v-0.294h0.973zM27.016 17.364v1.828h-0.377v-1.828h0.377zM27.739 18.108v0.286h-0.846v-0.286h0.846zM27.864 17.364v0.295h-0.972v-0.295h0.972zM28.928 17.364v1.828h-0.375v-1.828h0.375zM29.49 17.364v0.295h-1.492v-0.295h1.492zM30.932 18.898v0.294h-0.973v-0.294h0.973zM30.082 17.364v1.828h-0.377v-1.828h0.377zM30.805 18.108v0.286h-0.846v-0.286h0.846zM30.931 17.364v0.295h-0.972v-0.295h0.972zM31.152 17.364h0.682c0.14 0 0.26 0.021 0.36 0.063s0.179 0.104 0.234 0.186c0.054 0.082 0.082 0.183 0.082 0.303 0 0.098-0.017 0.182-0.050 0.252s-0.079 0.128-0.139 0.175c-0.059 0.046-0.129 0.083-0.21 0.11l-0.119 0.063h-0.593l-0.002-0.294h0.441c0.066 0 0.121-0.012 0.164-0.035s0.076-0.056 0.098-0.098c0.023-0.042 0.034-0.090 0.034-0.146 0-0.059-0.011-0.109-0.033-0.152s-0.055-0.075-0.099-0.098c-0.044-0.023-0.1-0.034-0.167-0.034h-0.305v1.533h-0.377v-1.828zM32.174 19.192l-0.417-0.815 0.398-0.002 0.422 0.8v0.018h-0.403zM33.751 18.713c0-0.033-0.005-0.062-0.015-0.088s-0.027-0.051-0.053-0.073c-0.026-0.023-0.062-0.045-0.109-0.067s-0.108-0.044-0.182-0.068c-0.083-0.027-0.162-0.057-0.236-0.090s-0.139-0.072-0.196-0.117c-0.056-0.045-0.1-0.098-0.133-0.157s-0.048-0.128-0.048-0.207c0-0.076 0.017-0.145 0.050-0.207s0.080-0.116 0.141-0.161c0.060-0.045 0.131-0.080 0.213-0.104s0.174-0.036 0.272-0.036c0.135 0 0.252 0.024 0.353 0.073s0.178 0.115 0.234 0.2c0.056 0.085 0.084 0.181 0.084 0.29h-0.374c0-0.054-0.011-0.1-0.034-0.141s-0.055-0.073-0.1-0.097c-0.044-0.023-0.1-0.035-0.168-0.035-0.065 0-0.12 0.010-0.163 0.030s-0.076 0.046-0.098 0.079c-0.022 0.033-0.033 0.069-0.033 0.11 0 0.031 0.008 0.059 0.023 0.084s0.039 0.049 0.070 0.070c0.031 0.022 0.069 0.042 0.114 0.062s0.097 0.038 0.157 0.057c0.1 0.030 0.187 0.064 0.262 0.102s0.14 0.080 0.191 0.127c0.051 0.047 0.090 0.1 0.116 0.159s0.039 0.127 0.039 0.202c0 0.080-0.016 0.151-0.046 0.213s-0.076 0.116-0.134 0.159c-0.059 0.044-0.128 0.077-0.21 0.099s-0.172 0.034-0.272 0.034c-0.090 0-0.18-0.012-0.267-0.035s-0.168-0.061-0.24-0.109c-0.071-0.049-0.128-0.111-0.171-0.186s-0.064-0.164-0.064-0.267h0.378c0 0.057 0.009 0.105 0.026 0.144s0.042 0.071 0.074 0.095c0.033 0.024 0.071 0.042 0.115 0.053s0.095 0.016 0.148 0.016c0.065 0 0.119-0.009 0.161-0.028s0.074-0.044 0.094-0.077c0.021-0.033 0.031-0.069 0.031-0.11z"></path>
    </symbol>   

    <symbol id="icon-Client-5" viewBox="0 0 45 24">
        <title>Client-5</title>
            <path d="M11.482 19.017c0.105 0.117 0.161 0.264 0.158 0.415 0.005 0.098-0.014 0.196-0.056 0.287s-0.107 0.172-0.189 0.237c-0.204 0.139-0.458 0.207-0.713 0.191h-1.254v-2.628h1.228c0.242-0.014 0.483 0.047 0.68 0.175 0.079 0.060 0.142 0.135 0.183 0.221s0.060 0.178 0.055 0.271c0.007 0.145-0.043 0.288-0.143 0.402-0.095 0.104-0.227 0.177-0.374 0.205 0.166 0.027 0.316 0.107 0.424 0.225zM10.012 18.62h0.525c0.119 0.008 0.238-0.023 0.334-0.087 0.039-0.032 0.070-0.072 0.090-0.117s0.027-0.092 0.023-0.14c0.004-0.048-0.004-0.095-0.024-0.14s-0.049-0.084-0.088-0.117c-0.099-0.066-0.221-0.098-0.344-0.089h-0.516v0.689zM10.922 19.628c0.042-0.033 0.075-0.074 0.097-0.12s0.031-0.097 0.027-0.147c0.003-0.051-0.007-0.101-0.029-0.148s-0.056-0.088-0.098-0.122c-0.103-0.069-0.229-0.102-0.357-0.095h-0.55v0.723h0.558c0.125 0.007 0.25-0.026 0.352-0.091z"></path>
            <path d="M13.992 20.147l-0.683-1.027h-0.257v1.027h-0.588v-2.628h1.112c0.28-0.018 0.558 0.062 0.774 0.223 0.155 0.143 0.249 0.331 0.264 0.53s-0.049 0.397-0.182 0.558c-0.137 0.142-0.325 0.236-0.531 0.267l0.727 1.050h-0.639zM13.052 18.762h0.481c0.334 0 0.501-0.133 0.501-0.398 0.003-0.054-0.006-0.108-0.027-0.159s-0.054-0.097-0.096-0.136c-0.105-0.079-0.241-0.117-0.378-0.107h-0.486l0.006 0.8z"></path>
            <path d="M17.204 19.618h-1.171l-0.207 0.529h-0.616l1.075-2.599h0.666l1.071 2.599h-0.616l-0.203-0.529zM17.047 19.22l-0.428-1.109-0.428 1.109h0.856z"></path>
            <path d="M21.224 20.147h-0.583l-1.308-1.787v1.787h-0.582v-2.628h0.582l1.308 1.797v-1.797h0.583v2.628z"></path>
            <path d="M24.553 19.518c-0.121 0.198-0.304 0.36-0.528 0.463-0.254 0.115-0.536 0.172-0.82 0.166h-1.038v-2.628h1.038c0.284-0.007 0.565 0.049 0.82 0.162 0.223 0.101 0.407 0.261 0.528 0.458 0.12 0.214 0.183 0.45 0.183 0.689s-0.063 0.476-0.183 0.689zM23.886 19.455c0.166-0.175 0.258-0.397 0.258-0.627s-0.092-0.453-0.258-0.627c-0.201-0.158-0.464-0.238-0.73-0.223h-0.405v1.701h0.405c0.267 0.015 0.529-0.065 0.73-0.223z"></path>
            <path d="M17.569 2.9c0 0 7.529 2.559 7.369 6.262v6.263c0 0-7.523-2.56-7.366-6.263l-0.003-6.262z"></path>
            <path d="M31.645 13.958c1.422-0.881 3.067-1.427 4.783-1.587v-1.961c-1.978 0.686-3.656 1.931-4.783 3.547z"></path>
            <path d="M30.791 14.549c1.164-2.11 3.181-3.738 5.638-4.549v-5.649c0 0-10.722 3.645-10.495 8.918v8.917c0 0 0.478-0.163 1.229-0.469 0-0.285 0-0.573 0.034-0.862 0.222-2.448 1.515-4.716 3.594-6.307z"></path>
            <path d="M29.771 17.861c0.056-0.618 0.182-1.23 0.375-1.826-1.295 1.373-2.079 3.077-2.242 4.872-0.016 0.169-0.024 0.339-0.029 0.514 0.609-0.263 1.318-0.592 2.062-0.978-0.19-0.849-0.246-1.719-0.167-2.582z"></path>
            <path d="M30.198 17.894c-0.071 0.781-0.027 1.567 0.133 2.338 2.929-1.578 6.221-4.016 6.094-6.963v-0.257c-2.093 0.211-4.051 1.034-5.573 2.344-0.356 0.812-0.577 1.667-0.653 2.537z"></path>
    </symbol>

    <symbol id="icon-Client-6" viewBox="0 0 45 24">
        <title>Client-6</title>
            <path d="M22.941 11.761c-0.19-0.253-0.281-0.552-0.26-0.854v-1.238c0-0.379 0.086-0.668 0.258-0.865s0.468-0.296 0.887-0.295c0.394 0 0.674 0.084 0.839 0.252 0.18 0.214 0.268 0.476 0.248 0.74v0.291h-0.705v-0.295c0.003-0.096-0.004-0.193-0.020-0.288-0.010-0.065-0.046-0.126-0.101-0.171-0.072-0.049-0.164-0.073-0.255-0.067-0.097-0.006-0.192 0.019-0.268 0.070-0.061 0.051-0.102 0.117-0.117 0.189-0.020 0.101-0.029 0.203-0.028 0.306v1.502c-0.011 0.145 0.020 0.29 0.090 0.422 0.035 0.045 0.084 0.080 0.141 0.102s0.12 0.030 0.182 0.024c0.090 0.006 0.18-0.018 0.25-0.068 0.057-0.049 0.094-0.113 0.105-0.183 0.016-0.1 0.024-0.2 0.022-0.301v-0.305h0.705v0.278c0.020 0.275-0.066 0.549-0.244 0.778-0.162 0.184-0.438 0.276-0.843 0.276s-0.712-0.098-0.886-0.302z"></path>
            <path d="M25.876 11.774c-0.178-0.193-0.267-0.473-0.267-0.845v-1.302c0-0.368 0.089-0.646 0.267-0.835s0.476-0.283 0.893-0.282c0.414 0 0.711 0.094 0.889 0.282s0.268 0.467 0.268 0.835v1.302c0 0.368-0.090 0.65-0.271 0.844s-0.476 0.291-0.886 0.291-0.714-0.098-0.893-0.29zM27.097 11.462c0.064-0.121 0.093-0.253 0.085-0.385v-1.594c0.008-0.13-0.020-0.26-0.083-0.378-0.036-0.046-0.086-0.082-0.144-0.104s-0.123-0.030-0.186-0.022c-0.063-0.008-0.128 0-0.186 0.022s-0.109 0.058-0.145 0.104c-0.064 0.118-0.093 0.248-0.085 0.378v1.602c-0.009 0.133 0.020 0.265 0.085 0.385 0.041 0.041 0.092 0.073 0.149 0.095s0.119 0.034 0.181 0.034 0.124-0.012 0.181-0.034c0.057-0.022 0.108-0.055 0.149-0.095v-0.008z"></path>
            <path d="M28.773 8.548h0.759l0.571 2.402 0.584-2.402h0.738l0.074 3.467h-0.546l-0.058-2.41-0.563 2.41h-0.438l-0.584-2.419-0.054 2.419h-0.552l0.069-3.467z"></path>
            <path d="M32.35 8.548h1.182c0.681 0 1.021 0.328 1.021 0.985 0 0.629-0.358 0.943-1.075 0.942h-0.403v1.541h-0.73l0.004-3.467zM33.36 10.030c0.072 0.008 0.145 0.002 0.215-0.017s0.133-0.051 0.187-0.093c0.084-0.117 0.121-0.255 0.105-0.392 0.004-0.106-0.008-0.212-0.035-0.315-0.010-0.034-0.029-0.067-0.054-0.095s-0.056-0.052-0.092-0.070c-0.101-0.042-0.213-0.061-0.325-0.055h-0.283v1.036h0.283z"></path>
            <path d="M35.605 8.548h0.784l0.804 3.467h-0.68l-0.159-0.8h-0.699l-0.163 0.8h-0.69l0.804-3.467zM36.275 10.814l-0.273-1.455-0.273 1.455h0.546z"></path>
            <path d="M37.842 8.548h0.511l0.978 1.978v-1.978h0.606v3.467h-0.486l-0.983-2.065v2.065h-0.626l0.001-3.467z"></path>
            <path d="M41.354 10.694l-0.813-2.14h0.684l0.496 1.375 0.465-1.375h0.67l-0.803 2.14v1.322h-0.7v-1.322z"></path>
            <path d="M24.068 13.532v0.181h-0.595v1.409h-0.25v-1.409h-0.598v-0.181h1.443z"></path>
            <path d="M25.934 15.122h-0.193c-0.020 0.001-0.039-0.004-0.054-0.015-0.015-0.009-0.026-0.022-0.032-0.037l-0.172-0.378h-0.826l-0.172 0.378c-0.005 0.016-0.014 0.030-0.026 0.043-0.015 0.011-0.035 0.016-0.054 0.015h-0.193l0.73-1.59h0.254l0.738 1.584zM24.726 14.531h0.689l-0.292-0.647c-0.022-0.049-0.040-0.099-0.054-0.15-0.010 0.030-0.019 0.059-0.028 0.084l-0.026 0.067-0.289 0.646z"></path>
            <path d="M27.192 14.966c0.046 0.002 0.091 0.002 0.137 0 0.039-0.004 0.079-0.010 0.117-0.019 0.036-0.008 0.071-0.017 0.105-0.029 0.032-0.011 0.064-0.025 0.098-0.039v-0.358h-0.292c-0.007 0-0.014-0.001-0.021-0.003s-0.013-0.006-0.018-0.010c-0.005-0.004-0.009-0.008-0.011-0.013s-0.004-0.010-0.003-0.016v-0.122h0.566v0.609c-0.046 0.029-0.095 0.054-0.146 0.076-0.052 0.022-0.106 0.040-0.162 0.054-0.060 0.015-0.121 0.026-0.182 0.033-0.071 0.007-0.142 0.010-0.213 0.010-0.126 0.001-0.251-0.019-0.368-0.059-0.109-0.038-0.208-0.094-0.292-0.166-0.081-0.073-0.145-0.158-0.188-0.252-0.046-0.105-0.069-0.217-0.067-0.33-0.002-0.113 0.021-0.226 0.066-0.332 0.042-0.094 0.106-0.18 0.188-0.252 0.083-0.072 0.183-0.128 0.292-0.165 0.125-0.041 0.258-0.061 0.391-0.059 0.068-0 0.136 0.005 0.203 0.014 0.059 0.008 0.118 0.022 0.174 0.040 0.051 0.017 0.1 0.038 0.146 0.063 0.045 0.025 0.087 0.053 0.127 0.083l-0.070 0.098c-0.005 0.009-0.014 0.016-0.024 0.022s-0.021 0.008-0.033 0.008c-0.016-0-0.032-0.005-0.045-0.013-0.022-0.010-0.045-0.023-0.071-0.038-0.031-0.017-0.064-0.031-0.098-0.043-0.043-0.015-0.088-0.027-0.134-0.035-0.061-0.010-0.123-0.014-0.185-0.014-0.096-0.001-0.192 0.014-0.282 0.044-0.081 0.028-0.154 0.071-0.214 0.126-0.060 0.057-0.107 0.124-0.136 0.198-0.065 0.172-0.065 0.358 0 0.53 0.032 0.075 0.082 0.143 0.146 0.2 0.060 0.055 0.132 0.097 0.213 0.126 0.093 0.028 0.191 0.038 0.289 0.032z"></path>
            <path d="M29.518 14.94h0.797v0.181h-1.040v-1.59h0.25l-0.006 1.409z"></path>
            <path d="M31.143 15.122h-0.25v-1.59h0.25v1.59z"></path>
            <path d="M32.071 13.539c0.015 0.007 0.028 0.017 0.038 0.029l1.067 1.199c-0.001-0.019-0.001-0.038 0-0.057 0-0.018 0-0.035 0-0.052v-1.133h0.217v1.597h-0.125c-0.019 0.001-0.037-0.002-0.054-0.009-0.015-0.008-0.029-0.018-0.039-0.030l-1.065-1.197c0 0.019 0 0.037 0 0.054s0 0.034 0 0.049v1.133h-0.209v-1.59h0.13c0.014 0 0.028 0.003 0.041 0.008z"></path>
            <path d="M35.23 13.532v0.175h-0.884v0.525h0.716v0.169h-0.716v0.543h0.884v0.175h-1.141v-1.586h1.141z"></path>
            <path d="M9.084 3.711l11.079 2.715v9.512l-11.079-2.713v-9.514zM8.373 2.9v10.787l12.499 3.063v-10.785l-12.499-3.065z"></path>
            <path d="M15.072 21.757l-12.501-3.066v-10.785l12.501 3.065v10.787z"></path>
            <path d="M8.58 3.589l10.935 2.681-4.65 4.014-10.936-2.682 4.652-4.013zM8.373 2.9l-5.802 5.006 12.501 3.065 5.8-5.006-12.499-3.065z"></path>
            <path d="M15.775 21.15l5.097-4.399-5.097-1.25v5.649z"></path>
    <!-- Close Icon -->
    <symbol id="icon-close" viewBox="0 0 24 24">
        <title>close</title>
            <path d="M24 2.417l-2.417-2.417-9.583 9.583-9.583-9.583-2.417 2.417 9.583 9.583-9.583 9.583 2.417 2.417 9.583-9.583 9.583 9.583 2.417-2.417-9.583-9.583 9.583-9.583z"></path>
    </symbol>

    <!-- FORM ICONS -->
    <!-- Name Icon -->
    <symbol id="icon-name" viewBox="0 0 32 32">
      <path d="M16 16c2.947 0 5.333-2.387 5.333-5.333S18.946 5.334 16 5.334c-2.947 0-5.333 2.387-5.333 5.333S13.054 16 16 16zm0 2.667c-3.56 0-10.667 1.787-10.667 5.333v1.333c0 .733.6 1.333 1.333 1.333h18.667c.733 0 1.333-.6 1.333-1.333V24c0-3.547-7.107-5.333-10.667-5.333z"/>
    </symbol>

    <!-- Phone Icon -->
    <symbol id="icon-phone" viewBox="0 0 32 32">
         <path d="m24.882 19.773-3.268-.373a2.561 2.561 0 0 0-2.11.733L17.137 22.5a19.357 19.357 0 0 1-8.478-8.478l2.38-2.38a2.561 2.561 0 0 0 .733-2.11l-.373-3.242a2.575 2.575 0 0 0-2.56-2.277H6.613c-1.454 0-2.663 1.209-2.573 2.663.682 10.987 9.469 19.761 20.443 20.443 1.454.09 2.663-1.119 2.663-2.573V22.32a2.549 2.549 0 0 0-2.264-2.547z"/>
    </symbol>

    <!-- Email Icon -->
    <symbol id="icon-email" viewBox="0 0 32 32">
        <path d="M26.667 5.333H5.334A2.663 2.663 0 0 0 2.681 8l-.013 16c0 1.467 1.2 2.667 2.667 2.667h21.333c1.467 0 2.667-1.2 2.667-2.667V8c0-1.467-1.2-2.667-2.667-2.667zM26.133 11l-9.427 5.893a1.346 1.346 0 0 1-1.413 0L5.866 11a1.132 1.132 0 1 1 1.2-1.92l8.933 5.587 8.933-5.587a1.132 1.132 0 1 1 1.2 1.92z"/>
    </symbol>

    <!-- Custom Checkbox Icon -->
    <symbol id="icon-checkbox" viewBox="0 0 32 32">
      <path d="m4.817 15.389-.169-.162-2.544 2.41 8.962 8.55L29.895 8.225l-2.527-2.411L11.066 21.35l-6.249-5.962z"/>
    </symbol>

    <!-- Subscribe Icon -->
    <symbol id="icon-paper-plane" viewBox="0 0 24 24">
        <title>paper-plane</title>
            <path d="M24 2l-24 11.25 7.67 2.367 11.83-9.242-8.998 10.116 0.007 0.002-0.009-0.002v5.509l4.301-4.182 5.449 1.682 3.75-17.5z"></path>
    </symbol>

    </def>
</svg>